# xmcd
#
# Track frame offsets:
#	150
#	13583
#	27312
#	43835
#	62735
#	86053
#	104149
#	122325
#	138946
#	162539
#	179531
#	192932
#	214988
#	236535
#	248989
#	264347
#	283508
#	307491
#	329614
#
# Disc length: 4656 seconds
#
# Revision: 0
# Processed by: cddbd v1.5.2PL0 Copyright (c) Steve Scherf et al.
# Submitted via: dBpowerAMP V4.0
#
DISCID=25122e13
DTITLE=Rosana - De casa a Las Ventas (Maquetas... e inéditos)
DYEAR=2007
DGENRE=Ballad
TTITLE0=Furia de color
TTITLE1=El Talismán
TTITLE2=A fuego lento
TTITLE3=No sé mañana
TTITLE4=Lunas rotas
TTITLE5=Si tú no estás
TTITLE6=Bebes de mí
TTITLE7=Sin miedo
TTITLE8=Deray
TTITLE9=Así son las cosas
TTITLE10=Descubriéndote
TTITLE11=Nadie más que yo
TTITLE12=Gaviotas de cristal
TTITLE13=Cuando suena un blues
TTITLE14=Respiras y yo
TTITLE15=Sin agua
TTITLE16=Escalera de mar
TTITLE17=En las calles de Madrid
TTITLE18=En las calles de Madrid (Acústico). Pista escondida
EXTD=
EXTT0=
EXTT1=
EXTT2=
EXTT3=
EXTT4=
EXTT5=
EXTT6=
EXTT7=
EXTT8=
EXTT9=
EXTT10=
EXTT11=
EXTT12=
EXTT13=
EXTT14=
EXTT15=
EXTT16=
EXTT17=
EXTT18=
PLAYORDER=
